<svg xmlns="http://www.w3.org/2000/svg" width="962.263" height="967.628" viewBox="0 0 962.263 967.628">
  <path id="compass-regular" d="M675.02,245.732l-280.026,128.7A62.135,62.135,0,0,0,364.4,405.2L236.414,686.784c-14.764,32.482,18.508,65.959,50.829,51.113L567.27,609.2a62.134,62.134,0,0,0,30.595-30.765L725.849,296.845c14.764-32.5-18.508-65.959-50.829-51.113ZM524.938,535.865a61.711,61.711,0,0,1-87.612,0,62.545,62.545,0,0,1,0-88.1,61.711,61.711,0,0,1,87.612,0A62.545,62.545,0,0,1,524.938,535.865ZM481.132,8C215.4,8,0,224.6,0,491.814S215.4,975.628,481.132,975.628s481.132-216.6,481.132-483.814S746.86,8,481.132,8Zm0,873.987c-213.948,0-388.009-175.031-388.009-390.173S267.183,101.641,481.132,101.641,869.141,276.673,869.141,491.814,695.08,881.987,481.132,881.987Z" transform="translate(0 -8)" fill="#ededed" opacity="0.5"/>
</svg>
