<svg xmlns="http://www.w3.org/2000/svg" width="833" height="284" viewBox="0 0 833 284">
  <g id="Logo" transform="translate(-182 -337)">
    <text id="Guidr" transform="translate(182 569)" fill="#fff" font-size="238" font-family="HelveticaNeue-Medium, Helvetica Neue" font-weight="500"><tspan x="0" y="0">Guidr</tspan></text>
    <path id="compass-regular" d="M130.687,54.026,76.473,78.943A12.03,12.03,0,0,0,70.549,84.9L45.771,139.416a7.446,7.446,0,0,0,9.841,9.9l54.214-24.917a12.03,12.03,0,0,0,5.923-5.956l24.778-54.517a7.446,7.446,0,0,0-9.841-9.9ZM101.63,110.2a11.948,11.948,0,0,1-16.962,0,12.109,12.109,0,0,1,0-17.057,11.947,11.947,0,0,1,16.962,0A12.109,12.109,0,0,1,101.63,110.2ZM93.149,8C41.7,8,0,49.936,0,101.669s41.7,93.669,93.149,93.669S186.3,153.4,186.3,101.669,144.6,8,93.149,8Zm0,169.208c-41.421,0-75.12-33.887-75.12-75.539s33.7-75.539,75.12-75.539,75.12,33.887,75.12,75.539S134.571,177.208,93.149,177.208Z" transform="translate(828.701 389.559)" fill="#fff"/>
  </g>
</svg>
